<svg width="24" height="25" viewBox="0 0 24 25" fill="" xmlns="http://www.w3.org/2000/svg">
<path d="M11.988 0.502943C9.61514 0.505316 7.29625 1.21112 5.32443 2.53114C3.35262 3.85116 1.81642 5.72613 0.910011 7.91905C0.00359875 10.112 -0.23233 12.5244 0.232047 14.8514C0.696424 17.1784 1.84026 19.3154 3.51897 20.9925C5.19767 22.6695 7.33589 23.8112 9.66333 24.2732C11.9908 24.7353 14.403 24.4969 16.595 23.5883C18.787 22.6797 20.6604 21.1417 21.9785 19.1685C23.2965 17.1954 24 14.8758 24 12.5029C24.0008 10.9258 23.6905 9.36408 23.087 7.90703C22.4835 6.44999 21.5985 5.12627 20.4828 4.01165C19.3671 2.89704 18.0425 2.0134 16.5848 1.41133C15.1272 0.809262 13.5651 0.500576 11.988 0.502943ZM12 22.1029C10.1013 22.1029 8.24524 21.5399 6.66653 20.4851C5.08782 19.4302 3.85736 17.9309 3.13076 16.1767C2.40416 14.4225 2.21405 12.4923 2.58447 10.6301C2.95488 8.76786 3.8692 7.0573 5.21178 5.71472C6.55436 4.37213 8.26492 3.45782 10.1271 3.0874C11.9894 2.71699 13.9196 2.9071 15.6738 3.6337C17.4279 4.3603 18.9273 5.59076 19.9821 7.16947C21.037 8.74818 21.6 10.6042 21.6 12.5029C21.6 13.7636 21.3517 15.012 20.8692 16.1767C20.3868 17.3414 19.6797 18.3997 18.7882 19.2912C17.8968 20.1826 16.8385 20.8897 15.6738 21.3722C14.509 21.8546 13.2607 22.1029 12 22.1029ZM12.6 6.50294H10.8V13.7029L17.1 17.4829L18 16.0029L12.6 12.8029V6.50294Z" fill="#363B41"/>
</svg>
