<svg width="55" height="69" viewBox="0 0 55 69" fill="none" xmlns="http://www.w3.org/2000/svg">
<path d="M27.0391 66.4971C30.3273 66.4971 33.5833 65.8495 36.6212 64.5911C39.6591 63.3328 42.4194 61.4884 44.7445 59.1633C47.0696 56.8382 48.914 54.0779 50.1723 51.04C51.4307 48.0021 52.0783 44.7461 52.0783 41.4578V27.536C52.0787 21.3848 49.8147 15.4487 45.7184 10.8599" stroke="#000001" stroke-width="4" stroke-linecap="round" stroke-linejoin="round"/>
<path d="M2 33.0945V41.4576C1.99832 46.3868 3.45154 51.2068 6.17753 55.3136C8.90352 59.4204 12.781 62.6313 17.324 64.5438" stroke="#000001" stroke-width="4" stroke-linecap="round" stroke-linejoin="round"/>
<path d="M39.5591 5.85164C33.8081 2.53138 26.9737 1.6316 20.5593 3.35024C14.1449 5.06889 8.67597 9.26517 5.35545 15.016C3.9882 17.3774 3.02352 19.9498 2.50098 22.628" stroke="#000001" stroke-width="4" stroke-linecap="round" stroke-linejoin="round"/>
<path d="M24.4351 17.0202C26.2769 16.6379 28.1812 16.6738 30.0073 17.1253C31.8335 17.5768 33.535 18.4325 34.9864 19.6292C36.4378 20.8259 37.6021 22.3331 38.3935 24.0397C39.1848 25.7463 39.5831 27.6088 39.5588 29.4898V37.5524" stroke="#000001" stroke-width="4" stroke-linecap="round" stroke-linejoin="round"/>
<path d="M36.3544 48.067C34.6505 49.965 32.4075 51.2972 29.9257 51.8855C27.4438 52.4738 24.8415 52.2899 22.467 51.3586C20.0925 50.4274 18.059 48.793 16.6388 46.6744C15.2186 44.5557 14.4794 42.0538 14.5202 39.5035V29.4878C14.5106 27.7679 14.8514 26.064 15.5217 24.48" stroke="#000001" stroke-width="4" stroke-linecap="round" stroke-linejoin="round"/>
<path d="M27.0391 30.0403V38.4034" stroke="#000001" stroke-width="4" stroke-linecap="round" stroke-linejoin="round"/>
</svg>
