<svg width="24" height="20" viewBox="0 0 24 20" fill="" xmlns="http://www.w3.org/2000/svg">
<path d="M21.6 0.50293H2.4C1.76556 0.506102 1.15819 0.760358 0.710696 1.2101C0.263201 1.65985 0.0119922 2.26848 0.0120001 2.90293L0 17.3029C0.00184679 17.9389 0.255296 18.5483 0.704984 18.9979C1.15467 19.4476 1.76405 19.7011 2.4 19.7029H21.6C22.236 19.7011 22.8453 19.4476 23.295 18.9979C23.7447 18.5483 23.9982 17.9389 24 17.3029V2.90293C23.9982 2.26698 23.7447 1.6576 23.295 1.20791C22.8453 0.758226 22.236 0.504776 21.6 0.50293ZM21.6 17.3029H2.4V5.30293L12 11.3029L21.6 5.30293V17.3029ZM12 8.90293L2.4 2.90293H21.6L12 8.90293Z" fill="#363B41"/>
</svg>
