<svg width="68" height="69" viewBox="0 0 68 69" fill="none" xmlns="http://www.w3.org/2000/svg">
<path d="M65.9993 39.4202L45.7162 66.4971L32.1777 56.3555" stroke="#000001" stroke-width="4" stroke-linecap="round" stroke-linejoin="round"/>
<path d="M24.1541 24.6509C30.2717 24.6509 35.231 19.6916 35.231 13.574C35.231 7.45638 30.2717 2.49707 24.1541 2.49707C18.0365 2.49707 13.0771 7.45638 13.0771 13.574C13.0771 19.6916 18.0365 24.6509 24.1541 24.6509Z" stroke="#000001" stroke-width="4" stroke-linecap="round" stroke-linejoin="round"/>
<path d="M14.3077 61.5737H2V54.1891C2.00385 49.8103 3.30524 45.5308 5.7398 41.8912C8.17435 38.2516 11.6329 35.4151 15.6786 33.74C19.7243 32.0648 24.1756 31.6261 28.4705 32.4793C32.7653 33.3325 36.711 35.4393 39.8092 38.5337" stroke="#000001" stroke-width="4" stroke-linecap="round" stroke-linejoin="round"/>
</svg>
