<svg width="68" height="69" viewBox="0 0 68 69" fill="none" xmlns="http://www.w3.org/2000/svg">
<path d="M66.0002 51.7278V61.5739C66.0002 62.8796 65.4815 64.1318 64.5583 65.0551C63.635 65.9783 62.3828 66.497 61.0771 66.497H51.231" stroke="#000001" stroke-width="4" stroke-linecap="round" stroke-linejoin="round"/>
<path d="M51.231 2.49707H61.0771C62.3828 2.49707 63.635 3.01575 64.5583 3.93901C65.4815 4.86226 66.0002 6.11447 66.0002 7.42015V17.2663" stroke="#000001" stroke-width="4" stroke-linecap="round" stroke-linejoin="round"/>
<path d="M2 17.2663V7.42015C2 6.11447 2.51868 4.86226 3.44194 3.93901C4.36519 3.01575 5.6174 2.49707 6.92308 2.49707H16.7692" stroke="#000001" stroke-width="4" stroke-linecap="round" stroke-linejoin="round"/>
<path d="M16.7692 66.497H6.92308C5.6174 66.497 4.36519 65.9783 3.44194 65.0551C2.51868 64.1318 2 62.8796 2 61.5739V51.7278" stroke="#000001" stroke-width="4" stroke-linecap="round" stroke-linejoin="round"/>
<path d="M34 32.0356C39.4379 32.0356 43.8461 27.6273 43.8461 22.1894C43.8461 16.7515 39.4379 12.3433 34 12.3433C28.5621 12.3433 24.1538 16.7515 24.1538 22.1894C24.1538 27.6273 28.5621 32.0356 34 32.0356Z" stroke="#000001" stroke-width="4" stroke-linecap="round" stroke-linejoin="round"/>
<path d="M49.5572 51.7283C48.1572 48.7884 45.9528 46.3053 43.1995 44.5669C40.4461 42.8284 37.2565 41.9058 34.0003 41.9058C30.744 41.9058 27.5544 42.8284 24.8011 44.5669C22.0477 46.3053 19.8434 48.7884 18.4434 51.7283" stroke="#000001" stroke-width="4" stroke-linecap="round" stroke-linejoin="round"/>
</svg>
