<svg width="17" height="24" viewBox="0 0 17 24" fill="" xmlns="http://www.w3.org/2000/svg">
<path d="M8.4 2.14612e-06C7.29668 -0.000786789 6.20402 0.215947 5.18453 0.637807C4.16504 1.05967 3.23872 1.67838 2.45855 2.45855C1.67838 3.23871 1.05967 4.16504 0.637807 5.18453C0.215947 6.20402 -0.000786789 7.29668 2.14612e-06 8.4C2.14612e-06 14.7 8.4 24 8.4 24C8.4 24 16.8 14.7 16.8 8.4C16.8008 7.29668 16.5841 6.20402 16.1622 5.18453C15.7403 4.16504 15.1216 3.23871 14.3415 2.45855C13.5613 1.67838 12.635 1.05967 11.6155 0.637807C10.596 0.215947 9.50333 -0.000786789 8.4 2.14612e-06ZM8.4 11.4C7.80666 11.4 7.22664 11.2241 6.73329 10.8944C6.23994 10.5648 5.85543 10.0962 5.62836 9.54805C5.4013 8.99987 5.34189 8.39667 5.45765 7.81473C5.5734 7.23279 5.85912 6.69824 6.27868 6.27868C6.69824 5.85912 7.23279 5.5734 7.81473 5.45765C8.39667 5.34189 8.99987 5.4013 9.54805 5.62836C10.0962 5.85543 10.5648 6.23994 10.8944 6.73329C11.2241 7.22664 11.4 7.80666 11.4 8.4C11.4 9.19565 11.0839 9.95871 10.5213 10.5213C9.95871 11.0839 9.19565 11.4 8.4 11.4Z" fill="#1D1D1B"/>
</svg>
