<svg width="16" height="24" viewBox="0 0 16 24" fill="" xmlns="http://www.w3.org/2000/svg">
<path d="M13.091 0.011L2.182 0C1.60378 0.00158344 1.0497 0.231981 0.640842 0.640842C0.231981 1.0497 0.00158344 1.60378 0 2.182V21.818C0.00158344 22.3962 0.231981 22.9503 0.640842 23.3592C1.0497 23.768 1.60378 23.9984 2.182 24H13.091C13.6692 23.9984 14.2233 23.768 14.6322 23.3592C15.041 22.9503 15.2714 22.3962 15.273 21.818V2.182C15.2709 1.60496 15.04 1.05232 14.6309 0.645324C14.2218 0.238325 13.668 0.0102017 13.091 0.011ZM13.091 19.636H2.182V4.364H13.091V19.636Z" fill="#1D1D1B"/>
</svg>
