<svg width="200" height="206" viewBox="0 0 200 206" fill="none" xmlns="http://www.w3.org/2000/svg">
<path d="M67.4585 165.063L19.6382 117.446V49.7627L67.4585 97.3842V165.063Z" fill="url(#paint0_linear_36_514)"/>
<path d="M99.7121 114.62C91.8364 106.778 37.2643 53.685 19.6398 34.8876C13.1169 27.9282 19.6398 11.3442 19.6398 11.3442L99.7121 91.0767V114.62Z" fill="#004C45"/>
<path d="M26.791 3.58892L99.7119 76.2004V52.657C99.7119 52.657 64.2463 17.1098 52.1331 5.28007C42.2344 -4.38599 26.791 3.58892 26.791 3.58892Z" fill="#004C45"/>
<path d="M131.963 165.063L179.784 117.446V49.7627L131.963 97.3842V165.063Z" fill="url(#paint1_linear_36_514)"/>
<path d="M99.7104 114.62C107.586 106.778 162.158 53.685 179.783 34.8876C186.306 27.9282 179.783 11.3442 179.783 11.3442L99.7104 91.0767V114.62Z" fill="#FF9255"/>
<path d="M172.631 3.58892L99.7104 76.2004V52.657C99.7104 52.657 135.176 17.1098 147.289 5.28007C157.188 -4.38599 172.631 3.58892 172.631 3.58892Z" fill="#FF9255"/>
<path d="M31.1323 158.448V189.195H25.2172V173.631L15.5433 185.199L5.91509 173.631V189.195H0V158.448H0.378799L15.5433 176.197L30.7493 158.448H31.1323Z" fill="#0C0C0C"/>
<path d="M43.8448 163.621V171.319H58.7969V176.661H43.8448V183.894H60.6993V189.196H37.9297V158.407H60.6993V163.621H43.8448Z" fill="#0C0C0C"/>
<path d="M78.9723 189.196H66.7842V158.407H78.9723C83.3847 158.407 87.0145 159.696 89.8535 162.278C91.3728 163.655 92.5175 165.313 93.2918 167.265C94.066 169.213 94.4532 171.393 94.4532 173.806C94.4532 176.247 94.066 178.44 93.2918 180.388C92.5175 182.336 91.3728 183.998 89.8535 185.374C88.4756 186.634 86.8647 187.588 85.0248 188.234C83.1808 188.873 81.1661 189.196 78.9723 189.196ZM72.6951 183.977H78.989C80.0879 183.977 81.1994 183.853 82.3274 183.6C83.4555 183.347 84.4753 182.85 85.3911 182.108C86.3069 181.366 87.0603 180.334 87.6514 179.016C88.2425 177.698 88.5381 175.973 88.5381 173.843C88.5381 171.712 88.2425 169.98 87.6514 168.649C87.0603 167.319 86.2986 166.287 85.3703 165.557C84.442 164.828 83.4139 164.339 82.2858 164.086C81.1577 163.833 80.0588 163.708 78.989 163.708H72.6951V183.977Z" fill="#0C0C0C"/>
<path d="M106.322 189.195H100.407V158.448H106.322V189.195Z" fill="#0C0C0C"/>
<path d="M142.229 181.623C141.554 182.859 140.722 183.974 139.735 184.968C138.749 185.963 137.658 186.817 136.463 187.534C135.264 188.251 133.97 188.802 132.575 189.196C131.181 189.59 129.736 189.785 128.246 189.785C126.048 189.785 123.98 189.362 122.036 188.525C120.092 187.683 118.398 186.539 116.945 185.097C115.492 183.654 114.347 181.963 113.502 180.028C112.657 178.092 112.237 176.032 112.237 173.843C112.237 171.655 112.657 169.595 113.502 167.659C114.347 165.723 115.496 164.036 116.945 162.59C118.393 161.147 120.092 160.003 122.036 159.162C123.98 158.32 126.048 157.902 128.246 157.902C129.741 157.902 131.181 158.097 132.575 158.49C133.97 158.884 135.264 159.435 136.463 160.152C137.658 160.865 138.753 161.723 139.735 162.718C140.722 163.713 141.55 164.816 142.229 166.022L136.696 168.252C136.247 167.58 135.718 166.946 135.11 166.357C134.503 165.769 133.837 165.251 133.104 164.803C132.371 164.355 131.597 164.003 130.781 163.75C129.965 163.497 129.12 163.373 128.246 163.373C126.839 163.373 125.52 163.659 124.296 164.235C123.072 164.811 122.007 165.574 121.107 166.527C120.204 167.481 119.488 168.596 118.951 169.872C118.414 171.149 118.148 172.475 118.148 173.847C118.148 175.248 118.414 176.583 118.951 177.843C119.484 179.103 120.204 180.214 121.107 181.167C122.007 182.121 123.072 182.888 124.296 183.46C125.52 184.036 126.835 184.322 128.246 184.322C129.12 184.322 129.965 184.197 130.781 183.945C131.597 183.692 132.371 183.344 133.104 182.892C133.837 182.444 134.503 181.918 135.11 181.317C135.714 180.716 136.243 180.077 136.696 179.402L142.229 181.623Z" fill="#0C0C0C"/>
<path d="M142.354 189.195L158.151 158.448H158.742L174.539 189.195H168.12L165.714 184.358H151.141L148.776 189.195H142.354ZM154.013 179.227H162.842L158.45 169.929L154.013 179.227Z" fill="#0C0C0C"/>
<path d="M199.423 183.977V189.192H177.162V158.403H183.077V183.977H199.423Z" fill="#0C0C0C"/>
<path d="M78.7246 204.33C78.5872 204.583 78.4165 204.811 78.2126 205.014C78.0128 205.217 77.788 205.391 77.5424 205.54C77.2968 205.685 77.0304 205.801 76.7473 205.88C76.4643 205.959 76.1646 206 75.8607 206C75.4111 206 74.9865 205.913 74.5911 205.743C74.1915 205.569 73.846 205.337 73.5504 205.043C73.2549 204.748 73.0176 204.4 72.8469 204.006C72.6721 203.609 72.5889 203.19 72.5889 202.742C72.5889 202.295 72.6763 201.872 72.8469 201.478C73.0218 201.08 73.2549 200.736 73.5504 200.442C73.846 200.148 74.1956 199.911 74.5911 199.741C74.9865 199.571 75.4111 199.484 75.8607 199.484C76.1646 199.484 76.4601 199.526 76.7473 199.605C77.0346 199.683 77.2968 199.799 77.5424 199.944C77.788 200.09 78.0128 200.268 78.2126 200.471C78.4124 200.674 78.5831 200.898 78.7246 201.146L77.5923 201.602C77.5008 201.466 77.3925 201.337 77.2677 201.213C77.1428 201.093 77.0054 200.985 76.8556 200.894C76.7057 200.802 76.5475 200.728 76.381 200.678C76.2145 200.628 76.0397 200.599 75.8607 200.599C75.5735 200.599 75.3029 200.657 75.0531 200.778C74.8034 200.894 74.5828 201.051 74.3996 201.246C74.2165 201.441 74.0666 201.669 73.9584 201.93C73.8501 202.191 73.796 202.465 73.796 202.742C73.796 203.028 73.8501 203.302 73.9584 203.559C74.0666 203.816 74.2165 204.044 74.3996 204.239C74.5828 204.433 74.8034 204.591 75.0531 204.707C75.3029 204.823 75.5735 204.885 75.8607 204.885C76.0397 204.885 76.2104 204.86 76.381 204.806C76.5475 204.757 76.7057 204.682 76.8556 204.591C77.0054 204.5 77.1428 204.392 77.2677 204.268C77.3925 204.143 77.5008 204.015 77.5923 203.874L78.7246 204.33Z" fill="#0C0C0C"/>
<path d="M87.1035 204.81V205.88H82.5454V199.575H83.7567V204.81H87.1035Z" fill="#0C0C0C"/>
<path d="M92.1376 205.88H90.9263V199.583H92.1376V205.88Z" fill="#0C0C0C"/>
<path d="M101.952 205.88L97.7934 202.133V205.88H96.582V199.583H96.7111L100.87 203.389V199.583H102.081V205.88H101.952Z" fill="#0C0C0C"/>
<path d="M107.737 205.88H106.526V199.583H107.737V205.88Z" fill="#0C0C0C"/>
<path d="M117.973 204.33C117.835 204.583 117.665 204.811 117.461 205.014C117.261 205.217 117.036 205.391 116.79 205.54C116.545 205.685 116.278 205.801 115.995 205.88C115.712 205.959 115.413 206 115.109 206C114.659 206 114.235 205.913 113.839 205.743C113.44 205.569 113.094 205.337 112.798 205.043C112.503 204.748 112.266 204.4 112.095 204.006C111.92 203.609 111.837 203.19 111.837 202.742C111.837 202.295 111.924 201.872 112.095 201.478C112.27 201.08 112.503 200.736 112.798 200.442C113.094 200.148 113.444 199.911 113.839 199.741C114.235 199.571 114.659 199.484 115.109 199.484C115.413 199.484 115.708 199.526 115.995 199.605C116.283 199.683 116.545 199.799 116.79 199.944C117.036 200.09 117.261 200.268 117.461 200.471C117.66 200.674 117.831 200.898 117.973 201.146L116.84 201.602C116.749 201.466 116.641 201.337 116.516 201.213C116.391 201.093 116.253 200.985 116.104 200.894C115.954 200.802 115.796 200.728 115.629 200.678C115.463 200.628 115.288 200.599 115.109 200.599C114.822 200.599 114.551 200.657 114.301 200.778C114.051 200.894 113.831 201.051 113.648 201.246C113.464 201.441 113.315 201.669 113.206 201.93C113.098 202.191 113.044 202.465 113.044 202.742C113.044 203.028 113.098 203.302 113.206 203.559C113.315 203.816 113.464 204.044 113.648 204.239C113.831 204.433 114.051 204.591 114.301 204.707C114.551 204.823 114.822 204.885 115.109 204.885C115.288 204.885 115.458 204.86 115.629 204.806C115.796 204.757 115.954 204.682 116.104 204.591C116.253 204.5 116.391 204.392 116.516 204.268C116.641 204.143 116.749 204.015 116.84 203.874L117.973 204.33Z" fill="#0C0C0C"/>
<path d="M121.341 205.051L121.999 204.085C122.315 204.305 122.644 204.492 122.981 204.649C123.318 204.807 123.672 204.885 124.042 204.885C124.238 204.885 124.413 204.86 124.563 204.811C124.713 204.761 124.837 204.699 124.941 204.62C125.046 204.541 125.125 204.454 125.175 204.355C125.225 204.255 125.254 204.156 125.254 204.056C125.254 203.932 125.216 203.824 125.137 203.733C125.058 203.646 124.954 203.571 124.825 203.513C124.696 203.455 124.542 203.406 124.367 203.368C124.192 203.327 124.009 203.289 123.818 203.256C123.693 203.236 123.543 203.207 123.376 203.173C123.21 203.14 123.035 203.099 122.856 203.045C122.677 202.991 122.502 202.916 122.327 202.829C122.153 202.738 121.999 202.626 121.861 202.494C121.724 202.361 121.611 202.199 121.528 202.013C121.445 201.826 121.403 201.607 121.403 201.354C121.403 200.985 121.478 200.682 121.628 200.438C121.778 200.193 121.969 200.003 122.202 199.862C122.436 199.721 122.694 199.621 122.981 199.563C123.268 199.505 123.543 199.476 123.805 199.476C124.072 199.476 124.309 199.493 124.513 199.526C124.721 199.559 124.912 199.609 125.091 199.675C125.27 199.741 125.445 199.824 125.616 199.924C125.786 200.023 125.97 200.143 126.165 200.28L125.491 201.225C125.191 201.018 124.904 200.861 124.625 200.753C124.346 200.645 124.059 200.587 123.751 200.587C123.647 200.587 123.53 200.599 123.397 200.624C123.264 200.649 123.139 200.691 123.023 200.749C122.906 200.807 122.806 200.877 122.727 200.968C122.648 201.059 122.61 201.163 122.61 201.292C122.61 201.416 122.656 201.524 122.748 201.611C122.839 201.698 122.96 201.768 123.102 201.826C123.247 201.884 123.405 201.934 123.576 201.971C123.751 202.013 123.917 202.05 124.076 202.092C124.196 202.121 124.338 202.15 124.504 202.179C124.667 202.208 124.837 202.249 125.016 202.299C125.191 202.349 125.366 202.419 125.541 202.506C125.716 202.593 125.87 202.701 126.003 202.838C126.14 202.974 126.249 203.14 126.332 203.335C126.415 203.534 126.457 203.774 126.457 204.056C126.457 204.384 126.398 204.666 126.282 204.91C126.165 205.151 126.003 205.35 125.791 205.507C125.578 205.665 125.324 205.785 125.029 205.864C124.733 205.942 124.409 205.984 124.051 205.984C123.722 205.984 123.43 205.959 123.181 205.909C122.931 205.859 122.702 205.793 122.494 205.71C122.286 205.627 122.09 205.528 121.907 205.412C121.724 205.316 121.536 205.188 121.341 205.051Z" fill="#0C0C0C"/>
<defs>
<linearGradient id="paint0_linear_36_514" x1="19.6378" y1="107.414" x2="67.459" y2="107.414" gradientUnits="userSpaceOnUse">
<stop stop-color="#FED017"/>
<stop offset="0.35" stop-color="#FED017" stop-opacity="0.7"/>
<stop offset="0.3701" stop-color="#FED42C" stop-opacity="0.7151"/>
<stop offset="0.4266" stop-color="#FEE064" stop-opacity="0.7575"/>
<stop offset="0.4836" stop-color="#FFE993" stop-opacity="0.8002"/>
<stop offset="0.5398" stop-color="#FFF1BA" stop-opacity="0.8424"/>
<stop offset="0.5951" stop-color="#FFF7D8" stop-opacity="0.8838"/>
<stop offset="0.6491" stop-color="#FFFBEE" stop-opacity="0.9243"/>
<stop offset="0.7014" stop-color="#FFFEFB" stop-opacity="0.9635"/>
<stop offset="0.75" stop-color="white"/>
<stop offset="0.7853" stop-color="white"/>
<stop offset="1" stop-color="white"/>
</linearGradient>
<linearGradient id="paint1_linear_36_514" x1="131.963" y1="107.414" x2="179.784" y2="107.414" gradientUnits="userSpaceOnUse">
<stop stop-color="white"/>
<stop offset="0.3005" stop-color="white"/>
<stop offset="0.35" stop-color="white"/>
<stop offset="0.4017" stop-color="#F8FDFE"/>
<stop offset="0.4774" stop-color="#E4F6FB"/>
<stop offset="0.5677" stop-color="#C4ECF7"/>
<stop offset="0.6685" stop-color="#98DDF1"/>
<stop offset="0.75" stop-color="#6FCFEB"/>
<stop offset="1" stop-color="#6FCFEB"/>
</linearGradient>
</defs>
</svg>
